<?xml version="1.0" encoding="UTF-8"?>
<svg version="1.1" xmlns="http://www.w3.org/2000/svg" width="736" height="228">
<path d="M0 0 C2.84848693 1.31721036 5.69714399 2.63405189 8.54589844 3.95068359 C10.60911987 4.90507892 12.67095913 5.86246759 14.73144531 6.82275391 C21.41568802 9.90931976 28.15058477 12.6566444 35.0625 15.1875 C66.32099753 26.76924114 96.15302864 49.51671068 111.06152344 79.91210938 C120.87057991 101.73496342 120.75524003 127.41012753 112.6875 149.6875 C103.96279283 171.08380567 88.65732288 188.52109346 67.74609375 198.5625 C40.34734588 209.8581801 6.30627569 209.34673705 -21.20703125 199.18359375 C-24 198 -24 198 -27 196 C-28.258125 195.71125 -29.51625 195.4225 -30.8125 195.125 C-37.93187402 193.43986376 -42.23986026 189.34606619 -46.0949707 183.27587891 C-47.34175919 180.1405775 -47.24165586 177.45654706 -47.23046875 174.0859375 C-47.23001053 173.39859528 -47.22955231 172.71125305 -47.2290802 172.00308228 C-47.22605782 170.53540335 -47.2181719 169.06772764 -47.20581055 167.60009766 C-47.18818737 165.45852931 -47.18529698 163.3174125 -47.18554688 161.17578125 C-47.16483587 153.51450856 -46.96826914 145.87332609 -46.62551498 138.21965599 C-46.03982744 124.90493332 -45.91853551 111.63429389 -46.04709625 98.30918503 C-46.09028828 93.56142379 -46.11283324 88.81361849 -46.13712692 84.06572914 C-46.18239522 75.29201869 -46.23668773 66.51853475 -46.32226562 57.74511719 C-46.38166584 51.57488769 -46.4166129 45.40493627 -46.43544769 39.23445511 C-46.44714914 36.90207238 -46.46789692 34.56971595 -46.49808502 32.23749924 C-46.53914298 28.99180633 -46.54897657 25.74738485 -46.55175781 22.50146484 C-46.57130524 21.55184372 -46.59085266 20.6022226 -46.61099243 19.62382507 C-46.56435779 11.97275829 -43.94416724 7.59277428 -39.19140625 1.79296875 C-26.97138158 -10.25122822 -14.27282665 -6.64856962 0 0 Z M-3 49 C-3 84.97 -3 120.94 -3 158 C12.81065941 165.02695974 30.64712398 164.72193673 47.015625 158.93359375 C59.17503519 153.2828249 66.71999143 143.54951927 71.375 131.125 C75.55388722 118.95171984 74.19664443 108.52432432 68.8125 96.9375 C58.70296493 78.06040354 40.18934543 68.29730785 21.5625 59.375 C20.83659668 59.02687256 20.11069336 58.67874512 19.36279297 58.32006836 C12.01240202 54.87622945 4.57694206 52.03077682 -3 49 Z " fill="#FBB8B8" transform="translate(211,15)"/>
<path d="M0 0 C4.82189785 2.91172418 8.28578376 7.16650713 10.4375 12.375 C10.67800903 14.79217529 10.67800903 14.79217529 10.66455078 17.51074219 C10.66439972 18.53149841 10.66424866 19.55225464 10.66409302 20.60394287 C10.65377045 21.69886047 10.64344788 22.79377808 10.6328125 23.921875 C10.6299826 25.0482135 10.62715271 26.174552 10.62423706 27.33502197 C10.61304374 30.93178946 10.58794037 34.52830779 10.5625 38.125 C10.55246912 40.56379849 10.54334346 43.00260088 10.53515625 45.44140625 C10.51310716 51.41935582 10.47963784 57.39716011 10.4375 63.375 C11.69876807 62.12651601 12.95816444 60.876141 14.21679688 59.625 C14.91832886 58.92890625 15.61986084 58.2328125 16.34265137 57.515625 C18.90730463 54.89492926 21.29933468 52.15218967 23.69140625 49.375 C27.28179139 45.26252306 31.07828137 41.33772152 34.83203125 37.375 C38.56711668 33.41565478 42.20309197 29.390931 45.77197266 25.28125 C50.20743032 20.20472502 54.82805079 15.29311769 59.4375 10.375 C60.22125 9.53582031 61.005 8.69664063 61.8125 7.83203125 C62.493125 7.12433594 63.17375 6.41664062 63.875 5.6875 C64.45121094 5.08550781 65.02742188 4.48351562 65.62109375 3.86328125 C69.86630096 0.38495019 74.01462505 0.0799605 79.375 0.0625 C81.15197266 0.03736328 81.15197266 0.03736328 82.96484375 0.01171875 C88.47580918 0.58823144 92.33603281 2.84553096 96.1875 6.75 C96.75984375 7.31460937 97.3321875 7.87921875 97.921875 8.4609375 C101.68583376 13.21439057 102.05912384 18.25064988 101.9296875 24.1328125 C100.2504342 35.19456044 90.66803286 44.30220077 83.4375 52.375 C82.62539062 53.28636719 81.81328125 54.19773438 80.9765625 55.13671875 C79.48710675 56.79647063 77.99256708 58.45167891 76.4921875 60.1015625 C74.56813862 62.23045309 72.68604188 64.38919142 70.8125 66.5625 C68.09146231 69.69106638 65.22492201 72.61276627 62.26538086 75.5144043 C60.56594063 77.24426058 58.99894649 79.02419912 57.43359375 80.875 C52.56383903 86.47657315 47.26743904 91.65269827 42 96.875 C40.9717702 97.89820139 39.94377374 98.92163733 38.91601562 99.9453125 C36.42585662 102.42457999 33.93257167 104.90067538 31.4375 107.375 C34.54247038 111.09799997 37.56282564 114.71459307 41.3125 117.8125 C44.15226916 120.22576391 46.82531164 122.71671419 49.4375 125.375 C53.27359612 129.25561561 57.29085593 132.8317593 61.4375 136.375 C62.39527344 137.22191406 63.35304688 138.06882813 64.33984375 138.94140625 C73.6208785 147.08057859 83.21483818 154.5613046 94.875 158.9375 C100.59827738 161.13346338 104.11404334 164.23385993 107.4375 169.375 C109.60548741 175.87896222 109.74531164 184.55786114 106.875 190.875 C103.96772087 195.70315998 99.79310153 199.58979949 94.4375 201.375 C73.39100762 202.96587489 57.16858163 193.4442065 41.4375 180.375 C38.81758219 178.10019885 36.23901219 175.79255931 33.6875 173.44140625 C31.7030318 171.61886514 29.67964108 169.86716442 27.625 168.125 C23.12929967 164.22934181 18.98832773 159.97741201 14.82885742 155.72949219 C11.92492651 152.67306049 11.92492651 152.67306049 8.4375 150.375 C8.44416183 150.92543976 8.45082367 151.47587952 8.45768738 152.04299927 C8.52419522 157.78576806 8.56936455 163.52842695 8.60229492 169.27148438 C8.61735641 171.41313117 8.63780972 173.55474724 8.66381836 175.69628906 C8.70031728 178.77937411 8.71725302 181.86205038 8.73046875 184.9453125 C8.74595261 185.89866486 8.76143646 186.85201721 8.77738953 187.83425903 C8.77898904 194.19070819 8.00417601 198.66601324 3.46484375 203.45703125 C2.77519531 204.02808594 2.08554687 204.59914062 1.375 205.1875 C0.68277344 205.77144531 -0.00945313 206.35539063 -0.72265625 206.95703125 C-5.98244424 211.01075321 -13.23559589 209.83299719 -19.5625 209.375 C-25.75497069 207.80561048 -30.16863914 203.69104754 -33.5625 198.375 C-36.48767868 192.68853862 -36.98276593 188.22176491 -36.8972168 181.87963867 C-36.89630098 180.94035082 -36.89538517 180.00106297 -36.8944416 179.03331184 C-36.88659392 175.89041689 -36.85592801 172.7482075 -36.82421875 169.60546875 C-36.81155775 167.34645491 -36.79967113 165.08743661 -36.78849792 162.82841492 C-36.74278034 155.34354439 -36.65717311 147.85939399 -36.5625 140.375 C-36.5462281 139.07137764 -36.52995621 137.76775528 -36.51319122 136.42462921 C-36.2998018 119.79439972 -36.01043788 103.16637409 -35.64804268 86.53872871 C-35.47476794 78.57851444 -35.31844967 70.61836028 -35.18422204 62.65738803 C-35.08640014 56.93443896 -34.9701307 51.21204474 -34.84004134 45.48973912 C-34.76378124 42.11549785 -34.69765553 38.7418653 -34.64673805 35.36709023 C-34.58891603 31.65179542 -34.50091912 27.9383704 -34.40551758 24.22387695 C-34.39544174 23.13586792 -34.38536591 22.04785889 -34.37498474 20.92687988 C-34.11650729 12.7634423 -31.99629479 7.63710505 -26.0625 2 C-18.6071115 -2.84600253 -8.19050782 -3.75137763 0 0 Z " fill="#FCFCFC" transform="translate(44.5625,13.625)"/>
<path d="M0 0 C0.69931641 -0.020625 1.39863281 -0.04125 2.11914062 -0.0625 C8.0135498 -0.10661157 11.94743239 1.16543427 16.26953125 5.1875 C16.84058594 5.868125 17.41164063 6.54875 18 7.25 C18.87591797 8.2709375 18.87591797 8.2709375 19.76953125 9.3125 C22.57642914 13.14782053 22.49702204 17.29224967 22.74389648 21.86303711 C22.78607772 22.61771995 22.82825895 23.37240278 22.87171841 24.1499548 C23.29018448 32.24831259 23.31431062 40.33444535 23.28515625 48.44140625 C23.28328376 50.00894627 23.28186381 51.57648689 23.28086853 53.14402771 C23.27710859 57.20610258 23.26733678 61.26813986 23.25616455 65.3302002 C23.24580745 69.50072725 23.24134076 73.67126058 23.23632812 77.84179688 C23.22570638 85.97788155 23.20871184 94.11393606 23.1875 102.25 C23.99438263 101.50864304 24.80126526 100.76728607 25.63259888 100.00346375 C26.71093782 99.0135992 27.78929791 98.02375769 28.86767578 97.03393555 C29.3971431 96.54735222 29.92661041 96.06076889 30.47212219 95.55944061 C33.72240822 92.57706271 36.99910089 89.62826606 40.3046875 86.70703125 C46.453711 81.19059806 52.15472407 75.23793196 57.86328125 69.27148438 C63.64654083 63.36717983 68.45915763 58.89569837 76.8203125 57.75390625 C77.97273437 57.77324219 79.12515625 57.79257812 80.3125 57.8125 C82.04886719 57.81443359 82.04886719 57.81443359 83.8203125 57.81640625 C89.2470527 58.51520922 93.12847516 60.76355739 96.9375 64.625 C97.79601562 65.47191406 97.79601562 65.47191406 98.671875 66.3359375 C101.98370267 70.51840028 102.48148917 74.44893591 102.5 79.6875 C102.51675781 80.77933594 102.53351563 81.87117188 102.55078125 82.99609375 C101.83506436 89.40676223 98.38792429 93.53555602 94.0625 98.0625 C93.29981812 98.87424683 93.29981812 98.87424683 92.52172852 99.70239258 C87.79963204 104.68849622 82.96750445 109.5686832 78.125 114.4375 C77.38685059 115.18040283 76.64870117 115.92330566 75.88818359 116.6887207 C75.19160645 117.38312256 74.4950293 118.07752441 73.77734375 118.79296875 C73.15722412 119.41196045 72.53710449 120.03095215 71.89819336 120.66870117 C70.1875 122.25 70.1875 122.25 67.1875 124.25 C68.72762028 127.6288353 70.69719223 130.41880442 72.9375 133.375 C73.32236572 133.88506592 73.70723145 134.39513184 74.10375977 134.9206543 C76.54861136 138.14554577 79.03601137 141.33491484 81.54296875 144.51171875 C108.32886951 178.4906417 108.32886951 178.4906417 107.59765625 194.37109375 C106.64010327 201.09220372 101.95652927 204.60053693 97.08984375 208.83203125 C93.2572172 211.68879395 89.50325534 211.44506522 84.875 211.5 C82.93173828 211.53867187 82.93173828 211.53867187 80.94921875 211.578125 C75.44034876 211.09760052 71.50448942 209.16406538 67.875 205 C64.80837364 201.33875546 62.4357312 197.37691854 60.0625 193.25 C55.43533257 185.22426829 49.77216946 178.31701613 43.82617188 171.24169922 C42.17624244 169.23631717 40.588499 167.19514428 39.015625 165.12890625 C38.51724121 164.47607666 38.01885742 163.82324707 37.50537109 163.15063477 C36.56378601 161.91032344 35.62887459 160.6649091 34.70166016 159.41381836 C33.59861572 157.97096849 32.40012659 156.60205752 31.1875 155.25 C27.97949714 155.25 27.14963493 155.60058731 24.5625 157.3125 C23.95148437 157.69535156 23.34046875 158.07820312 22.7109375 158.47265625 C17.65398105 164.37243878 19.90236132 177.68707546 19.84570312 184.93554688 C19.65662106 193.16281538 18.98123697 198.95043143 13.37109375 205.30859375 C12.79488281 205.76363281 12.21867188 206.21867188 11.625 206.6875 C11.04621094 207.16058594 10.46742188 207.63367188 9.87109375 208.12109375 C5.98750473 210.72517084 1.86590509 210.46742771 -2.625 210.5 C-3.67397461 210.5309375 -3.67397461 210.5309375 -4.74414062 210.5625 C-10.42199666 210.60499097 -14.36905836 209.40628504 -18.640625 205.63671875 C-19.10984375 205.07597656 -19.5790625 204.51523438 -20.0625 203.9375 C-20.54203125 203.38449219 -21.0215625 202.83148438 -21.515625 202.26171875 C-25.55540156 195.99519788 -25.12058446 189.3807201 -25.0625 182.1875 C-25.05790771 180.98270996 -25.05331543 179.77791992 -25.04858398 178.53662109 C-24.96940851 170.4460415 -24.52612225 162.43693719 -23.875 154.375 C-22.83867601 141.04860712 -22.44116482 127.73728022 -22.1875 114.375 C-22.1664621 113.28631622 -22.14542419 112.19763245 -22.12374878 111.07595825 C-21.86498832 96.94994879 -21.79135533 82.82957055 -21.84939194 68.70188904 C-21.85933881 66.25499741 -21.86771962 63.80810461 -21.87576294 61.36120605 C-21.90095895 54.12731994 -21.93343269 46.89389658 -22.00424957 39.66029644 C-22.03095939 36.65235511 -22.04561579 33.64443273 -22.05756378 30.63640022 C-22.06596658 29.23085291 -22.07975005 27.82532596 -22.09929657 26.41988945 C-22.12577945 24.48262143 -22.131939 22.54510788 -22.13720703 20.60766602 C-22.14688507 19.51954117 -22.15656311 18.43141632 -22.16653442 17.31031799 C-21.5225466 11.74360644 -19.03660053 7.98158435 -14.8125 4.4375 C-14.131875 3.85355469 -13.45125 3.26960937 -12.75 2.66796875 C-8.80600716 -0.21846149 -4.6821713 0.03395954 0 0 Z " fill="#7243FC" transform="translate(623.8125,2.75)"/>
<path d="M0 0 C13.7868401 11.36586079 20.71897317 27.59298492 23 45 C24.75028295 71.11880566 21.37502408 94.69800054 4 115 C3.42507813 115.67546875 2.85015625 116.3509375 2.2578125 117.046875 C-6.79316597 126.83405746 -20.04427468 133.25853377 -33.38085938 134.16113281 C-53.56643395 134.50529606 -69.41115387 132.8361651 -84.65234375 118.34375 C-85.42707031 117.5703125 -86.20179688 116.796875 -87 116 C-87.72316406 115.2884375 -88.44632812 114.576875 -89.19140625 113.84375 C-103.85490818 98.48463602 -105.41888274 79.37362681 -105.21484375 59.203125 C-104.7181426 38.65635699 -95.72637723 20.22094774 -81 6 C-59.56324357 -12.8511168 -23.72303535 -17.55749604 0 0 Z M-41.875 33.1875 C-42.51179688 33.40792969 -43.14859375 33.62835938 -43.8046875 33.85546875 C-52.84800988 38.57022579 -56.71523572 47.30674782 -59.88671875 56.59765625 C-60.42061119 58.74458541 -60.77134201 60.80072587 -61 63 C-61.12181641 64.06927734 -61.12181641 64.06927734 -61.24609375 65.16015625 C-61.68634607 72.72449159 -59.13502809 79.69415005 -55.0625 86 C-51.18972361 89.75541953 -47.65886601 91.62174493 -42.18359375 92.12890625 C-36.65405886 91.80247575 -32.21110835 89.05313769 -28.125 85.5 C-20.02143905 75.96639888 -19.04913535 66.36124047 -20 54 C-21.09779956 47.11091002 -22.72036697 40.58729868 -27 35 C-31.78099752 31.89458573 -36.5080464 31.23686024 -41.875 33.1875 Z " fill="#149917" transform="translate(438,82)"/>
<path d="M0 0 C9.43278174 8.22801426 9.43278174 8.22801426 10.27734375 14.84375 C10.19589243 26.36911189 10.19589243 26.36911189 6.87890625 30.72265625 C0.05508667 37.40692942 -3.71202366 39.1841176 -13.37109375 39.14453125 C-19.19443569 38.48940528 -23.27359141 35.83777251 -28.12109375 32.72265625 C-34.84064647 29.30393645 -41.36334702 27.53599939 -48.68359375 29.84765625 C-59.9109019 37.58789457 -67.46888738 55.94266184 -70.12109375 68.72265625 C-70.29857718 74.21619098 -69.16459938 79.10492357 -66.12109375 83.72265625 C-59.88985328 89.81227762 -53.6251661 92.28744756 -45.0703125 92.84765625 C-36.13075192 92.46876097 -27.76075841 87.78649569 -19.8359375 83.9921875 C-13.19093587 80.88481264 -5.83714497 80.60082947 1.19140625 82.72265625 C5.76639182 86.12729667 10.05247895 90.24337436 11.87890625 95.72265625 C12.51162346 100.97852304 13.13649428 106.34550815 10.59765625 111.14453125 C8.8198806 113.22937723 6.98457967 114.97128352 4.87890625 116.72265625 C4.27691406 117.25246094 3.67492187 117.78226563 3.0546875 118.328125 C-14.34413685 132.51710335 -36.58025902 136.24089927 -58.30810547 134.55273438 C-73.4030826 132.85759657 -86.7175056 125.59403164 -97.12109375 114.72265625 C-97.8378125 114.02527344 -98.55453125 113.32789063 -99.29296875 112.609375 C-110.2419004 101.35173287 -113.52665426 87.21704725 -113.43359375 71.97265625 C-113.4286792 71.01109619 -113.42376465 70.04953613 -113.41870117 69.05883789 C-113.05004797 46.521839 -103.25876915 24.35277852 -88.12109375 7.72265625 C-87.67894531 7.2328125 -87.23679687 6.74296875 -86.78125 6.23828125 C-80.31400053 -0.84239297 -74.07286866 -6.46380735 -65.12109375 -10.27734375 C-64.39277344 -10.61378906 -63.66445313 -10.95023437 -62.9140625 -11.296875 C-43.72161404 -18.65790164 -16.17972805 -11.80573398 0 0 Z " fill="#020100" transform="translate(576.12109375,82.27734375)"/>
<path d="M0 0 C4.82189785 2.91172418 8.28578376 7.16650713 10.4375 12.375 C10.67800903 14.79217529 10.67800903 14.79217529 10.66455078 17.51074219 C10.66439972 18.53149841 10.66424866 19.55225464 10.66409302 20.60394287 C10.65377045 21.69886047 10.64344788 22.79377808 10.6328125 23.921875 C10.6299826 25.0482135 10.62715271 26.174552 10.62423706 27.33502197 C10.61304374 30.93178946 10.58794037 34.52830779 10.5625 38.125 C10.55246912 40.56379849 10.54334346 43.00260088 10.53515625 45.44140625 C10.51310716 51.41935582 10.47963784 57.39716011 10.4375 63.375 C11.69876807 62.12651601 12.95816444 60.876141 14.21679688 59.625 C14.91832886 58.92890625 15.61986084 58.2328125 16.34265137 57.515625 C18.90730463 54.89492926 21.29933468 52.15218967 23.69140625 49.375 C27.28179139 45.26252306 31.07828137 41.33772152 34.83203125 37.375 C38.56711668 33.41565478 42.20309197 29.390931 45.77197266 25.28125 C50.20743032 20.20472502 54.82805079 15.29311769 59.4375 10.375 C60.22125 9.53582031 61.005 8.69664063 61.8125 7.83203125 C62.493125 7.12433594 63.17375 6.41664062 63.875 5.6875 C64.45121094 5.08550781 65.02742188 4.48351562 65.62109375 3.86328125 C69.86630096 0.38495019 74.01462505 0.0799605 79.375 0.0625 C81.15197266 0.03736328 81.15197266 0.03736328 82.96484375 0.01171875 C88.47580918 0.58823144 92.33603281 2.84553096 96.1875 6.75 C96.75984375 7.31460937 97.3321875 7.87921875 97.921875 8.4609375 C101.68583376 13.21439057 102.05912384 18.25064988 101.9296875 24.1328125 C100.2504342 35.19456044 90.66803286 44.30220077 83.4375 52.375 C82.62539062 53.28636719 81.81328125 54.19773438 80.9765625 55.13671875 C79.48710675 56.79647063 77.99256708 58.45167891 76.4921875 60.1015625 C74.56813862 62.23045309 72.68604188 64.38919142 70.8125 66.5625 C68.09146231 69.69106638 65.22492201 72.61276627 62.26538086 75.5144043 C60.56594063 77.24426058 58.99894649 79.02419912 57.43359375 80.875 C52.56383903 86.47657315 47.26743904 91.65269827 42 96.875 C40.9717702 97.89820139 39.94377374 98.92163733 38.91601562 99.9453125 C36.42585662 102.42457999 33.93257167 104.90067538 31.4375 107.375 C34.54247038 111.09799997 37.56282564 114.71459307 41.3125 117.8125 C44.15226916 120.22576391 46.82531164 122.71671419 49.4375 125.375 C53.27359612 129.25561561 57.29085593 132.8317593 61.4375 136.375 C62.39527344 137.22191406 63.35304688 138.06882813 64.33984375 138.94140625 C73.6208785 147.08057859 83.21483818 154.5613046 94.875 158.9375 C100.59827738 161.13346338 104.11404334 164.23385993 107.4375 169.375 C109.60548741 175.87896222 109.74531164 184.55786114 106.875 190.875 C103.96772087 195.70315998 99.79310153 199.58979949 94.4375 201.375 C73.39100762 202.96587489 57.16858163 193.4442065 41.4375 180.375 C38.81758219 178.10019885 36.23901219 175.79255931 33.6875 173.44140625 C31.7030318 171.61886514 29.67964108 169.86716442 27.625 168.125 C23.12929967 164.22934181 18.98832773 159.97741201 14.82885742 155.72949219 C11.92492651 152.67306049 11.92492651 152.67306049 8.4375 150.375 C8.44416183 150.92543976 8.45082367 151.47587952 8.45768738 152.04299927 C8.52419522 157.78576806 8.56936455 163.52842695 8.60229492 169.27148438 C8.61735641 171.41313117 8.63780972 173.55474724 8.66381836 175.69628906 C8.70031728 178.77937411 8.71725302 181.86205038 8.73046875 184.9453125 C8.74595261 185.89866486 8.76143646 186.85201721 8.77738953 187.83425903 C8.77898904 194.19070819 8.00417601 198.66601324 3.46484375 203.45703125 C2.77519531 204.02808594 2.08554687 204.59914062 1.375 205.1875 C0.68277344 205.77144531 -0.00945313 206.35539063 -0.72265625 206.95703125 C-5.98244424 211.01075321 -13.23559589 209.83299719 -19.5625 209.375 C-25.75497069 207.80561048 -30.16863914 203.69104754 -33.5625 198.375 C-36.48767868 192.68853862 -36.98276593 188.22176491 -36.8972168 181.87963867 C-36.89630098 180.94035082 -36.89538517 180.00106297 -36.8944416 179.03331184 C-36.88659392 175.89041689 -36.85592801 172.7482075 -36.82421875 169.60546875 C-36.81155775 167.34645491 -36.79967113 165.08743661 -36.78849792 162.82841492 C-36.74278034 155.34354439 -36.65717311 147.85939399 -36.5625 140.375 C-36.5462281 139.07137764 -36.52995621 137.76775528 -36.51319122 136.42462921 C-36.2998018 119.79439972 -36.01043788 103.16637409 -35.64804268 86.53872871 C-35.47476794 78.57851444 -35.31844967 70.61836028 -35.18422204 62.65738803 C-35.08640014 56.93443896 -34.9701307 51.21204474 -34.84004134 45.48973912 C-34.76378124 42.11549785 -34.69765553 38.7418653 -34.64673805 35.36709023 C-34.58891603 31.65179542 -34.50091912 27.9383704 -34.40551758 24.22387695 C-34.39544174 23.13586792 -34.38536591 22.04785889 -34.37498474 20.92687988 C-34.11650729 12.7634423 -31.99629479 7.63710505 -26.0625 2 C-18.6071115 -2.84600253 -8.19050782 -3.75137763 0 0 Z M-20.5625 11.375 C-23.05525256 14.8340716 -23.94438106 17.31271181 -24.03715515 21.55302429 C-24.06652161 22.57621262 -24.09588806 23.59940094 -24.12614441 24.65359497 C-24.1434108 25.76652924 -24.16067719 26.8794635 -24.1784668 28.02612305 C-24.20816559 29.20784592 -24.23786438 30.38956879 -24.26846313 31.60710144 C-24.34703993 34.85320923 -24.41271937 38.09926829 -24.47246909 41.34576774 C-24.53867336 44.78833696 -24.62066278 48.23053401 -24.70063782 51.67280579 C-24.83359137 57.49255005 -24.95571734 63.31243976 -25.07055664 69.13256836 C-25.18675803 75.01982985 -25.31107516 80.90682828 -25.44555664 86.79370117 C-25.46187759 87.50861752 -25.47819854 88.22353388 -25.49501407 88.96011436 C-25.52788412 90.39904142 -25.56075786 91.83796839 -25.59363532 93.27689528 C-25.95340949 109.08752072 -26.24453984 124.89859446 -26.50029755 140.71123505 C-26.5596906 144.20952445 -26.62722541 147.70754811 -26.69781494 151.20562744 C-26.79745617 156.20979756 -26.87231545 161.21362345 -26.9238987 166.2185154 C-26.94557386 167.96915278 -26.9756498 169.71971138 -27.01514244 171.47003746 C-27.21287069 180.53047148 -27.36529862 188.81563864 -21.5625 196.375 C-17.62512931 199.22331071 -14.37844921 200.07732593 -9.5625 199.375 C-6.24192082 197.65085312 -4.109157 196.46245158 -2.40856934 193.07951355 C-1.4996544 190.1741101 -1.29847927 187.83002772 -1.27539062 184.7902832 C-1.26197632 183.69597488 -1.24856201 182.60166656 -1.23474121 181.47419739 C-1.22946411 180.30322006 -1.22418701 179.13224274 -1.21875 177.92578125 C-1.1968158 176.11233467 -1.1968158 176.11233467 -1.17443848 174.26225281 C-1.11215138 169.09152663 -1.07243947 163.92068269 -1.03076172 158.74975586 C-0.9971407 154.97496749 -0.95201431 151.20043868 -0.90625 147.42578125 C-0.9009729 146.24873123 -0.8956958 145.07168121 -0.89025879 143.85896301 C-0.87684448 142.77411118 -0.86343018 141.68925934 -0.84960938 140.5715332 C-0.84231812 139.61398636 -0.83502686 138.65643951 -0.82751465 137.6698761 C-0.5625 135.375 -0.5625 135.375 1.4375 133.375 C4.59017934 133.30168188 6.64840677 133.71896231 9.10546875 135.76171875 C10.29152062 136.96948324 11.45830714 138.19634857 12.609375 139.4375 C14.34197878 141.27376384 16.1313324 142.87717008 18.0625 144.5 C22.44590948 148.26939103 26.48047422 152.36028687 30.51806641 156.49267578 C44.23312762 170.42874201 65.21469753 190.52479149 85.94921875 191.4921875 C89.57010742 191.08914424 91.86795457 190.78390441 94.875 188.625 C97.93318592 184.22121227 99.09368632 180.62317381 98.22265625 175.296875 C96.64188124 171.42751527 93.08421544 170.01451504 89.4375 168.375 C87.85767371 167.78223436 86.2741767 167.19917703 84.6875 166.625 C68.71270788 160.48834205 54.62738268 144.67425866 42.27099609 133.09082031 C40.19259752 131.14581563 38.10591814 129.20986953 36.01953125 127.2734375 C34.49185581 125.84931405 32.96450907 124.42483793 31.4375 123 C30.71908936 122.33387695 30.00067871 121.66775391 29.26049805 120.98144531 C21.21960113 113.44718835 21.21960113 113.44718835 18.4375 109.375 C18.40140288 105.6718366 19.76338257 103.77817838 22.19384766 101.18041992 C23.40305785 99.97859491 24.62304144 98.78754685 25.8515625 97.60546875 C26.49942719 96.96563553 27.14729187 96.32580231 27.81478882 95.6665802 C29.88811193 93.62221881 31.97455933 91.59192054 34.0625 89.5625 C36.12644661 87.54134076 38.18747831 85.51729852 40.24594116 83.49055481 C41.52558648 82.23225301 42.80873906 80.97750359 44.09609985 79.72709656 C47.86397748 76.04119842 51.39524649 72.22389164 54.81796265 68.21479797 C56.45572384 66.35429768 58.16772977 64.60963051 59.9375 62.875 C63.65009965 59.21168264 67.04566858 55.33433629 70.4375 51.375 C71.28570312 50.4159375 72.13390625 49.456875 73.0078125 48.46875 C77.92928601 42.85386705 82.48855771 37.13966279 86.5625 30.875 C86.94067871 30.29991699 87.31885742 29.72483398 87.70849609 29.13232422 C89.72909909 25.92888336 91.12840776 23.17617685 91.4375 19.375 C89.79218759 15.73799362 87.95977759 13.27893383 84.4375 11.375 C80.56011046 10.31604907 77.72588304 9.75266312 74.01953125 11.54296875 C71.05299434 13.64781869 68.6145269 15.97025491 66.0625 18.5625 C65.57773193 19.05443848 65.09296387 19.54637695 64.59350586 20.05322266 C61.39631647 23.3223608 58.34058019 26.68116755 55.37109375 30.15625 C52.8267156 33.07585968 50.19599253 35.91084892 47.5625 38.75 C44.03256944 42.55756555 40.52170291 46.37775794 37.0625 50.25 C32.69450198 55.12443257 28.23614022 59.91155127 23.74853516 64.67578125 C20.87824937 67.72871452 18.04533171 70.79851025 15.3046875 73.96875 C14.8185498 74.52385254 14.33241211 75.07895508 13.83154297 75.65087891 C12.52327611 77.15160534 11.2298412 78.66522515 9.9375 80.1796875 C7.0501732 82.71512134 5.22051148 83.12206609 1.4375 83.375 C-0.95795849 79.78181227 -0.82658585 77.26781564 -0.75 73.125 C-0.74355469 72.38193604 -0.73710938 71.63887207 -0.73046875 70.87329102 C-0.64931845 64.67987509 -0.35856176 58.49866041 -0.0625 52.3125 C0.32732244 43.959162 0.6008766 35.61234323 0.6875 27.25 C0.70876953 26.23671631 0.73003906 25.22343262 0.75195312 24.17944336 C0.84297934 17.25003295 0.84297934 17.25003295 -2.5625 11.375 C-9.45804747 7.67183562 -13.86456021 7.15238579 -20.5625 11.375 Z " fill="#010101" transform="translate(44.5625,13.625)"/>
<path d="M0 0 C0.69931641 -0.020625 1.39863281 -0.04125 2.11914062 -0.0625 C8.0135498 -0.10661157 11.94743239 1.16543427 16.26953125 5.1875 C16.84058594 5.868125 17.41164063 6.54875 18 7.25 C18.87591797 8.2709375 18.87591797 8.2709375 19.76953125 9.3125 C22.57642914 13.14782053 22.49702204 17.29224967 22.74389648 21.86303711 C22.78607772 22.61771995 22.82825895 23.37240278 22.87171841 24.1499548 C23.29018448 32.24831259 23.31431062 40.33444535 23.28515625 48.44140625 C23.28328376 50.00894627 23.28186381 51.57648689 23.28086853 53.14402771 C23.27710859 57.20610258 23.26733678 61.26813986 23.25616455 65.3302002 C23.24580745 69.50072725 23.24134076 73.67126058 23.23632812 77.84179688 C23.22570638 85.97788155 23.20871184 94.11393606 23.1875 102.25 C23.99438263 101.50864304 24.80126526 100.76728607 25.63259888 100.00346375 C26.71093782 99.0135992 27.78929791 98.02375769 28.86767578 97.03393555 C29.3971431 96.54735222 29.92661041 96.06076889 30.47212219 95.55944061 C33.72240822 92.57706271 36.99910089 89.62826606 40.3046875 86.70703125 C46.453711 81.19059806 52.15472407 75.23793196 57.86328125 69.27148438 C63.64654083 63.36717983 68.45915763 58.89569837 76.8203125 57.75390625 C77.97273437 57.77324219 79.12515625 57.79257812 80.3125 57.8125 C82.04886719 57.81443359 82.04886719 57.81443359 83.8203125 57.81640625 C89.2470527 58.51520922 93.12847516 60.76355739 96.9375 64.625 C97.79601562 65.47191406 97.79601562 65.47191406 98.671875 66.3359375 C101.98370267 70.51840028 102.48148917 74.44893591 102.5 79.6875 C102.51675781 80.77933594 102.53351563 81.87117188 102.55078125 82.99609375 C101.83506436 89.40676223 98.38792429 93.53555602 94.0625 98.0625 C93.29981812 98.87424683 93.29981812 98.87424683 92.52172852 99.70239258 C87.79963204 104.68849622 82.96750445 109.5686832 78.125 114.4375 C77.38685059 115.18040283 76.64870117 115.92330566 75.88818359 116.6887207 C75.19160645 117.38312256 74.4950293 118.07752441 73.77734375 118.79296875 C73.15722412 119.41196045 72.53710449 120.03095215 71.89819336 120.66870117 C70.1875 122.25 70.1875 122.25 67.1875 124.25 C68.72762028 127.6288353 70.69719223 130.41880442 72.9375 133.375 C73.32236572 133.88506592 73.70723145 134.39513184 74.10375977 134.9206543 C76.54861136 138.14554577 79.03601137 141.33491484 81.54296875 144.51171875 C108.32886951 178.4906417 108.32886951 178.4906417 107.59765625 194.37109375 C106.64010327 201.09220372 101.95652927 204.60053693 97.08984375 208.83203125 C93.2572172 211.68879395 89.50325534 211.44506522 84.875 211.5 C82.93173828 211.53867187 82.93173828 211.53867187 80.94921875 211.578125 C75.44034876 211.09760052 71.50448942 209.16406538 67.875 205 C64.80837364 201.33875546 62.4357312 197.37691854 60.0625 193.25 C55.43533257 185.22426829 49.77216946 178.31701613 43.82617188 171.24169922 C42.17624244 169.23631717 40.588499 167.19514428 39.015625 165.12890625 C38.51724121 164.47607666 38.01885742 163.82324707 37.50537109 163.15063477 C36.56378601 161.91032344 35.62887459 160.6649091 34.70166016 159.41381836 C33.59861572 157.97096849 32.40012659 156.60205752 31.1875 155.25 C27.97949714 155.25 27.14963493 155.60058731 24.5625 157.3125 C23.95148437 157.69535156 23.34046875 158.07820312 22.7109375 158.47265625 C17.65398105 164.37243878 19.90236132 177.68707546 19.84570312 184.93554688 C19.65662106 193.16281538 18.98123697 198.95043143 13.37109375 205.30859375 C12.79488281 205.76363281 12.21867188 206.21867188 11.625 206.6875 C11.04621094 207.16058594 10.46742188 207.63367188 9.87109375 208.12109375 C5.98750473 210.72517084 1.86590509 210.46742771 -2.625 210.5 C-3.67397461 210.5309375 -3.67397461 210.5309375 -4.74414062 210.5625 C-10.42199666 210.60499097 -14.36905836 209.40628504 -18.640625 205.63671875 C-19.10984375 205.07597656 -19.5790625 204.51523438 -20.0625 203.9375 C-20.54203125 203.38449219 -21.0215625 202.83148438 -21.515625 202.26171875 C-25.55540156 195.99519788 -25.12058446 189.3807201 -25.0625 182.1875 C-25.05790771 180.98270996 -25.05331543 179.77791992 -25.04858398 178.53662109 C-24.96940851 170.4460415 -24.52612225 162.43693719 -23.875 154.375 C-22.83867601 141.04860712 -22.44116482 127.73728022 -22.1875 114.375 C-22.1664621 113.28631622 -22.14542419 112.19763245 -22.12374878 111.07595825 C-21.86498832 96.94994879 -21.79135533 82.82957055 -21.84939194 68.70188904 C-21.85933881 66.25499741 -21.86771962 63.80810461 -21.87576294 61.36120605 C-21.90095895 54.12731994 -21.93343269 46.89389658 -22.00424957 39.66029644 C-22.03095939 36.65235511 -22.04561579 33.64443273 -22.05756378 30.63640022 C-22.06596658 29.23085291 -22.07975005 27.82532596 -22.09929657 26.41988945 C-22.12577945 24.48262143 -22.131939 22.54510788 -22.13720703 20.60766602 C-22.14688507 19.51954117 -22.15656311 18.43141632 -22.16653442 17.31031799 C-21.5225466 11.74360644 -19.03660053 7.98158435 -14.8125 4.4375 C-14.131875 3.85355469 -13.45125 3.26960937 -12.75 2.66796875 C-8.80600716 -0.21846149 -4.6821713 0.03395954 0 0 Z M-8.8125 13.25 C-11.61999566 17.10176031 -12.17919309 19.76391553 -12.13720703 24.49414062 C-12.1338031 25.74609222 -12.13039917 26.99804382 -12.12689209 28.28793335 C-12.10819604 29.66070781 -12.08933102 31.03347997 -12.0703125 32.40625 C-12.06171357 33.84647844 -12.0546059 35.28671646 -12.04888916 36.72695923 C-12.03432663 39.79988057 -12.01113787 42.87256446 -11.98114014 45.94537354 C-11.91141305 53.21768344 -11.89161336 60.49021212 -11.86774063 67.76279068 C-11.85935283 70.21742528 -11.8493887 72.67205023 -11.83932495 75.12667847 C-11.78533154 89.54589821 -11.90861008 103.95803347 -12.1875 118.375 C-12.21845261 120.00086533 -12.21845261 120.00086533 -12.25003052 121.65957642 C-12.54363491 136.31721091 -13.23577999 150.87656842 -14.390625 165.4921875 C-14.80589269 170.84985056 -15.06171769 176.18910421 -15.125 181.5625 C-15.14175781 182.87863281 -15.15851562 184.19476563 -15.17578125 185.55078125 C-14.66563241 190.74552264 -13.59549743 195.66511339 -9.5625 199.25 C-4.87755035 200.95361806 -1.26979444 200.72642318 3.4375 199.1875 C6.95088399 196.71216128 8.13706294 194.30701951 9.1875 190.25 C9.66360204 185.60763542 9.74465867 180.97659126 9.8125 176.3125 C10.24887973 155.37718238 10.24887973 155.37718238 12.9375 152.1484375 C13.68 151.64570313 14.4225 151.14296875 15.1875 150.625 C15.99832031 150.06554687 16.80914063 149.50609375 17.64453125 148.9296875 C18.48371094 148.37539062 19.32289063 147.82109375 20.1875 147.25 C21.36892578 146.35667969 21.36892578 146.35667969 22.57421875 145.4453125 C23.71310547 144.60613281 23.71310547 144.60613281 24.875 143.75 C25.55949219 143.2446875 26.24398437 142.739375 26.94921875 142.21875 C30.18818345 140.81689442 31.85839714 141.11895864 35.1875 142.25 C37.14243967 144.25313541 38.64940624 146.05695203 40.25 148.3125 C41.2077107 149.59909121 42.16742769 150.88419085 43.12890625 152.16796875 C43.87551514 153.17609619 43.87551514 153.17609619 44.63720703 154.20458984 C46.6936306 156.91777357 48.86263272 159.52738791 51.0402832 162.14355469 C60.21511467 173.18000529 68.35234316 184.8513457 75.65234375 197.2109375 C77.37446511 199.49833533 78.48748879 200.33988386 81.1875 201.25 C85.68506077 201.49137178 89.29071363 200.80333627 93.125 198.4375 C95.76433119 195.6821035 95.76433119 195.6821035 97.1875 192.25 C96.03105228 177.72431574 83.87165032 165.23864355 75.1875 154.25 C71.00261085 148.91238024 66.83151229 143.56414426 62.68798828 138.19433594 C61.75429987 136.98446048 60.81820578 135.77643285 59.87841797 134.57128906 C58.81968703 133.20555726 57.78353562 131.82239663 56.75 130.4375 C56.21503906 129.72980469 55.68007813 129.02210938 55.12890625 128.29296875 C53.84021404 125.49634624 54.16414089 124.1253674 55.1875 121.25 C56.75390625 119.2578125 56.75390625 119.2578125 58.75 117.375 C59.48089844 116.67890625 60.21179688 115.9828125 60.96484375 115.265625 C62.88983909 113.51993502 64.83784479 111.81390597 66.8125 110.125 C82.35371909 97.33580932 82.35371909 97.33580932 92.25 80.5625 C92.16220714 75.9094784 90.65746465 73.77440778 87.5 70.5 C84.19199622 68.71188985 80.90875825 67.79989892 77.1875 68.25 C71.96306426 70.89662002 68.14365455 73.88757731 64.09765625 78.08203125 C63.5494371 78.63686691 63.00121796 79.19170258 62.43638611 79.76335144 C60.70024413 81.52268542 58.97463973 83.29189568 57.25 85.0625 C54.97392211 87.38533565 52.69350866 89.70384698 50.41015625 92.01953125 C49.86408218 92.57396912 49.31800812 93.12840698 48.75538635 93.699646 C44.7335953 97.75892083 40.5522121 101.56148343 36.1875 105.25 C34.49666332 106.78800639 32.80862407 108.32910144 31.125 109.875 C20.62353721 119.2812182 20.62353721 119.2812182 16.3125 119.1875 C14.1875 118.25 14.1875 118.25 13.1875 116.25 C13.09976653 113.77609308 13.07218007 111.33086813 13.08984375 108.85717773 C13.09130402 108.09415344 13.09276428 107.33112915 13.0942688 106.54498291 C13.09808154 104.8824086 13.10420514 103.21983839 13.11233521 101.55727959 C13.12511267 98.91025357 13.13162029 96.26327785 13.13647461 93.6162262 C13.14984586 87.02720576 13.17378824 80.43823172 13.19787598 73.84924316 C13.21780337 68.30342421 13.23337525 62.75762454 13.24343872 57.21177864 C13.24981688 54.63264134 13.26233479 52.05358411 13.27514648 49.47447205 C13.30148379 41.59665228 13.22347155 33.72649275 12.87109375 25.85571289 C12.83774681 24.81370932 12.83774681 24.81370932 12.8037262 23.75065517 C12.57265755 19.47934018 11.78757811 16.66206676 9.1875 13.25 C3.15891358 9.27661349 -3.00925032 8.57515998 -8.8125 13.25 Z " fill="#000001" transform="translate(623.8125,2.75)"/>
<path d="M0 0 C2.84848693 1.31721036 5.69714399 2.63405189 8.54589844 3.95068359 C10.60911987 4.90507892 12.67095913 5.86246759 14.73144531 6.82275391 C21.41568802 9.90931976 28.15058477 12.6566444 35.0625 15.1875 C66.32099753 26.76924114 96.15302864 49.51671068 111.06152344 79.91210938 C120.87057991 101.73496342 120.75524003 127.41012753 112.6875 149.6875 C103.96279283 171.08380567 88.65732288 188.52109346 67.74609375 198.5625 C40.34734588 209.8581801 6.30627569 209.34673705 -21.20703125 199.18359375 C-24 198 -24 198 -27 196 C-28.258125 195.71125 -29.51625 195.4225 -30.8125 195.125 C-37.93187402 193.43986376 -42.23986026 189.34606619 -46.0949707 183.27587891 C-47.34175919 180.1405775 -47.24165586 177.45654706 -47.23046875 174.0859375 C-47.23001053 173.39859528 -47.22955231 172.71125305 -47.2290802 172.00308228 C-47.22605782 170.53540335 -47.2181719 169.06772764 -47.20581055 167.60009766 C-47.18818737 165.45852931 -47.18529698 163.3174125 -47.18554688 161.17578125 C-47.16483587 153.51450856 -46.96826914 145.87332609 -46.62551498 138.21965599 C-46.03982744 124.90493332 -45.91853551 111.63429389 -46.04709625 98.30918503 C-46.09028828 93.56142379 -46.11283324 88.81361849 -46.13712692 84.06572914 C-46.18239522 75.29201869 -46.23668773 66.51853475 -46.32226562 57.74511719 C-46.38166584 51.57488769 -46.4166129 45.40493627 -46.43544769 39.23445511 C-46.44714914 36.90207238 -46.46789692 34.56971595 -46.49808502 32.23749924 C-46.53914298 28.99180633 -46.54897657 25.74738485 -46.55175781 22.50146484 C-46.57130524 21.55184372 -46.59085266 20.6022226 -46.61099243 19.62382507 C-46.56435779 11.97275829 -43.94416724 7.59277428 -39.19140625 1.79296875 C-26.97138158 -10.25122822 -14.27282665 -6.64856962 0 0 Z M-29 7 C-33.06014362 11.13639045 -36.13057731 14.28606718 -36.11352539 20.24157715 C-36.1134549 21.13230927 -36.1133844 22.02304138 -36.11331177 22.94076538 C-36.10814545 23.9213089 -36.10297913 24.90185242 -36.09765625 25.91210938 C-36.09619598 26.94353058 -36.09473572 27.97495178 -36.0932312 29.03762817 C-36.0894153 31.28786188 -36.08328845 33.53809254 -36.07516479 35.78831482 C-36.06239029 39.37454831 -36.05588001 42.96074467 -36.05102539 46.54699707 C-36.03765081 55.47784311 -36.01375908 64.40865513 -35.98962402 73.33947754 C-35.96966139 80.84999916 -35.95410224 88.36050633 -35.94406128 95.87104797 C-35.93770044 99.35884179 -35.925181 102.84657555 -35.91235352 106.33435059 C-35.87982636 120.70393605 -36.24967073 135.02392955 -36.8877697 149.37901497 C-37.11337256 154.64766095 -37.25555316 159.91422277 -37.3125 165.1875 C-37.34150391 166.15623047 -37.37050781 167.12496094 -37.40039062 168.12304688 C-37.4554626 174.32076221 -36.64288802 177.9366575 -33 183 C-30.44829551 184.93577582 -28.73172549 185.03353431 -25.5 185.4375 C-22 186 -22 186 -20.140625 187.41015625 C-5.08341975 198.59315358 21.53495029 197.31075608 39.1875 194.8125 C59.48779272 191.6057551 77.63480044 183.33875241 90.54296875 166.859375 C103.29983598 149.16643351 110.36630916 128.07338491 107.50390625 106.2109375 C102.84408648 80.77937878 87.78531855 59.84959393 66.83203125 44.99609375 C53.80085059 36.00367689 40.78655026 28.83841453 25.90991211 23.43408203 C15.94729324 19.75106662 6.35744292 15.25755347 -3.25195312 10.74755859 C-16.08254681 3.98053666 -16.08254681 3.98053666 -29 7 Z " fill="#020101" transform="translate(211,15)"/>
<path d="M0 0 C2.81700085 2.19036188 4.34686122 4.07991116 5.6015625 7.42578125 C5.443854 11.21078531 4.57591555 13.27675168 2.4765625 16.42578125 C-0.39388887 18.89755882 -1.91778578 19.41390573 -5.7109375 19.48828125 C-9.21379794 18.51207424 -11.25743984 17.46744537 -14.2734375 15.55078125 C-23.66288756 9.66823422 -33.54547668 8.27234903 -44.5234375 9.42578125 C-53.20627758 11.6721674 -59.47595334 21.38336194 -63.80053711 28.671875 C-71.62322219 42.39523671 -77.71838615 56.24877682 -73.80078125 72.40625 C-70.28002071 81.82820431 -64.3815092 87.01045758 -55.5234375 91.42578125 C-44.05784253 95.70108785 -31.55852486 94.17780186 -20.5234375 89.42578125 C-17.16977883 87.89060188 -13.83684126 86.33153875 -10.53125 84.6953125 C-6.08814008 82.8199739 -2.94066611 81.92558292 1.6640625 83.55078125 C4.79081474 85.63528275 6.09758948 86.93779068 7.4765625 90.42578125 C7.66061548 94.75102629 6.72200702 96.15750468 3.7890625 99.36328125 C-11.06543634 110.92014185 -31.56365903 117.1829104 -50.1484375 115 C-65.01618231 112.47558083 -77.81809453 106.06579908 -87.328125 94.16796875 C-96.30194517 81.35460364 -99.24528323 67.42489367 -97.0234375 51.94140625 C-93.52625476 34.05808543 -85.59929229 18.04863847 -73.5234375 4.42578125 C-72.85957031 3.64460938 -72.19570313 2.8634375 -71.51171875 2.05859375 C-51.97355462 -19.39366039 -22.44445823 -14.00172859 0 0 Z " fill="#EEC400" transform="translate(570.5234375,91.57421875)"/>
<path d="M0 0 C13.7868401 11.36586079 20.71897317 27.59298492 23 45 C24.75028295 71.11880566 21.37502408 94.69800054 4 115 C3.42507813 115.67546875 2.85015625 116.3509375 2.2578125 117.046875 C-6.79316597 126.83405746 -20.04427468 133.25853377 -33.38085938 134.16113281 C-53.56643395 134.50529606 -69.41115387 132.8361651 -84.65234375 118.34375 C-85.42707031 117.5703125 -86.20179688 116.796875 -87 116 C-87.72316406 115.2884375 -88.44632812 114.576875 -89.19140625 113.84375 C-103.85490818 98.48463602 -105.41888274 79.37362681 -105.21484375 59.203125 C-104.7181426 38.65635699 -95.72637723 20.22094774 -81 6 C-59.56324357 -12.8511168 -23.72303535 -17.55749604 0 0 Z M-80.1875 20.625 C-92.62270478 36.98711155 -97.19749135 56.47555714 -94.50390625 76.73046875 C-91.30701067 93.00393158 -84.4962379 106.0454767 -71 116 C-57.51766323 124.21693768 -43.67116284 126.09080553 -28.3125 122.375 C-21.82022254 120.47612585 -16.47072654 117.95498396 -11 114 C-10.39027344 113.59523438 -9.78054688 113.19046875 -9.15234375 112.7734375 C3.4752643 103.39621603 10.18556823 85.10783949 12.49609375 70.2109375 C15.10962969 50.43656501 11.42720263 32.05548989 0.2734375 15.42578125 C-7.41255117 5.86382852 -19.41467572 0.97267258 -31.37890625 -0.3828125 C-50.48501192 -1.03489802 -67.74861282 5.99667619 -80.1875 20.625 Z " fill="#000100" transform="translate(438,82)"/>
<path d="M0 0 C2.89660781 0.77382302 5.32992757 2.03791504 7.953125 3.46875 C11.36050222 5.17845871 14.94333172 6.33437642 18.55078125 7.55078125 C21.31169977 8.63616476 23.62390032 10.05098102 26.1640625 11.578125 C27.84255077 12.30297277 29.52178595 13.02632739 31.20947266 13.72949219 C43.08484371 18.88547392 54.21451592 25.29440814 64.1640625 33.578125 C64.95941406 34.21105469 65.75476563 34.84398437 66.57421875 35.49609375 C77.69390094 44.74660123 86.05789636 57.04770606 88.1640625 71.578125 C89.17700908 89.8736053 86.3936565 103.87695694 74.2421875 118.32421875 C62.73370646 130.80616153 50.15452468 135.93748755 33.32763672 136.70800781 C30.08507321 136.8079654 26.84549441 136.85930461 23.6015625 136.890625 C22.56128906 136.90826904 21.52101562 136.92591309 20.44921875 136.9440918 C9.58234266 136.93468251 -0.90512223 135.50894027 -8.8359375 127.578125 C-9.09041309 125.38823795 -9.09041309 125.38823795 -9.09663391 122.61231995 C-9.10371872 121.56213684 -9.11080353 120.51195374 -9.11810303 119.4299469 C-9.11562561 118.27300827 -9.11314819 117.11606964 -9.1105957 115.92407227 C-9.1182621 114.10206802 -9.1182621 114.10206802 -9.12608337 112.24325562 C-9.13762592 108.90642046 -9.14004909 105.56983319 -9.13752007 102.23299527 C-9.13645211 99.44960073 -9.14132927 96.66622924 -9.1461255 93.88283962 C-9.15723007 87.31730206 -9.15765285 80.75182171 -9.15161133 74.1862793 C-9.14557039 67.40839603 -9.15788327 60.63072029 -9.1791814 53.85287243 C-9.19678322 48.03795787 -9.20280099 42.22310944 -9.19954365 36.40816921 C-9.19772827 32.93328045 -9.20039203 29.4585397 -9.21425819 25.983675 C-9.22913831 22.10955753 -9.21987881 18.23570539 -9.20825195 14.36157227 C-9.21589569 13.20665787 -9.22353943 12.05174347 -9.23141479 10.86183167 C-9.22440048 9.80882874 -9.21738617 8.75582581 -9.2101593 7.6709137 C-9.21032704 6.75448373 -9.21049479 5.83805376 -9.21066761 4.89385319 C-8.8359375 2.578125 -8.8359375 2.578125 -7.54301739 0.75591946 C-5.04484997 -0.96768338 -2.88679692 -0.48288239 0 0 Z M1.1640625 12.578125 C1.1640625 48.548125 1.1640625 84.518125 1.1640625 121.578125 C16.97472191 128.60508474 34.81118648 128.30006173 51.1796875 122.51171875 C63.33909769 116.8609499 70.88405393 107.12764427 75.5390625 94.703125 C79.71794972 82.52984484 78.36070693 72.10244932 72.9765625 60.515625 C62.86702743 41.63852854 44.35340793 31.87543285 25.7265625 22.953125 C25.00065918 22.60499756 24.27475586 22.25687012 23.52685547 21.89819336 C16.17646452 18.45435445 8.74100456 15.60890182 1.1640625 12.578125 Z " fill="#010101" transform="translate(206.8359375,51.421875)"/>
<path d="M0 0 C6.69283411 5.00750088 9.95028135 12.14395863 11.7109375 20.12890625 C13.65158736 35.31364024 14.07504472 51.59122664 4.96875 64.48828125 C-0.75489264 71.25593597 -8.0763735 76.06838801 -17.02734375 76.9140625 C-26.52954611 76.94828412 -32.80249475 75.3227802 -39.9140625 68.84765625 C-49.10535399 58.20510821 -49.63412272 45.93545252 -48.84375 32.61328125 C-47.19868196 20.24738844 -41.51036469 9.54102715 -31.84375 1.61328125 C-22.36077012 -5.00364589 -10.11621328 -5.82996057 0 0 Z M-19.71875 7.80078125 C-20.35554688 8.02121094 -20.99234375 8.24164063 -21.6484375 8.46875 C-30.69175988 13.18350704 -34.55898572 21.92002907 -37.73046875 31.2109375 C-38.26436119 33.35786666 -38.61509201 35.41400712 -38.84375 37.61328125 C-38.96556641 38.68255859 -38.96556641 38.68255859 -39.08984375 39.7734375 C-39.53009607 47.33777284 -36.97877809 54.3074313 -32.90625 60.61328125 C-29.03347361 64.36870078 -25.50261601 66.23502618 -20.02734375 66.7421875 C-14.49780886 66.415757 -10.05485835 63.66641894 -5.96875 60.11328125 C2.13481095 50.57968013 3.10711465 40.97452172 2.15625 28.61328125 C1.05845044 21.72419127 -0.56411697 15.20057993 -4.84375 9.61328125 C-9.62474752 6.50786698 -14.3517964 5.85014149 -19.71875 7.80078125 Z " fill="#000100" transform="translate(415.84375,107.38671875)"/>
</svg>
