<?xml version="1.0" encoding="UTF-8"?>
<svg version="1.1" xmlns="http://www.w3.org/2000/svg" width="736" height="228">
<path d="M0 0 C6.64206736 3.06688885 13.3314657 5.7924725 20.20214844 8.30004883 C53.25736968 20.52188769 83.82001025 43.93923363 99.26464844 76.17504883 C104.06799353 86.81445821 105.76020183 97.70211452 107.26464844 109.17504883 C107.68423828 107.77706055 107.68423828 107.77706055 108.11230469 106.35083008 C114.3926307 86.10352957 125.55806436 68.25226941 144.41699219 57.52270508 C160.18098803 50.06237783 179.50913919 46.8715828 196.51464844 51.86254883 C198.45172959 52.5805403 200.37192925 53.34715439 202.26464844 54.17504883 C203.06773437 54.52567383 203.87082031 54.87629883 204.69824219 55.23754883 C219.62820695 62.68959363 230.0225257 77.51710194 235.23339844 93.06567383 C235.98530539 95.75750071 236.651961 98.44838687 237.26464844 101.17504883 C237.46960938 102.06192383 237.67457031 102.94879883 237.88574219 103.86254883 C238.3616473 105.96309552 238.8157268 108.06857038 239.26464844 110.17504883 C239.66683594 109.02842773 239.66683594 109.02842773 240.07714844 107.85864258 C247.8261046 86.67646307 261.06796185 63.2649579 281.70214844 52.31958008 C298.83550416 44.66702943 316.02659411 45.57044893 333.38476562 51.95483398 C345.10106968 56.48992039 355.69930619 61.98842224 362.40527344 73.05786133 C364.34251272 77.83051448 363.99406953 83.51589344 362.64746094 88.42504883 C359.77063903 94.94245068 353.90680279 100.54534831 347.26464844 103.17504883 C338.609248 104.38071311 332.63258427 102.5485959 325.26464844 98.17504883 C318.51843983 94.57074757 313.10441494 92.48735001 305.26464844 93.17504883 C300.37884525 95.85184526 297.54842655 99.05143961 294.70214844 103.73754883 C294.12581665 104.66301514 294.12581665 104.66301514 293.5378418 105.60717773 C287.37592095 115.69268705 282.30708109 126.10970021 283.26464844 138.17504883 C284.92323104 143.61151402 287.30300598 147.33536667 292.26464844 150.17504883 C303.22649045 154.74707339 311.49286901 153.44482646 322.26464844 149.17504883 C325.72133001 147.65182981 329.14284023 146.07579336 332.54980469 144.44458008 C338.35066778 141.73194626 344.21651795 141.04012653 350.45214844 142.78833008 C356.65757702 145.53956501 361.47990823 150.498484 364.43652344 156.58911133 C366.23947834 162.21909314 366.26705427 168.0900447 363.70214844 173.42504883 C362.89777344 174.33254883 362.09339844 175.24004883 361.26464844 176.17504883 C360.801875 176.72547852 360.33910156 177.2759082 359.86230469 177.84301758 C352.63863554 185.84380517 342.93034246 190.1070066 333.07714844 193.98754883 C332.34133545 194.27758789 331.60552246 194.56762695 330.84741211 194.86645508 C314.0145363 201.236768 293.71388717 201.72996759 277.06152344 194.40551758 C269.97973434 191.08524331 263.11350643 187.41927804 257.26464844 182.17504883 C256.46800781 181.49313477 255.67136719 180.8112207 254.85058594 180.10864258 C246.02945312 172.02038334 240.08871877 161.83482436 237.26464844 150.17504883 C237.13964844 146.73754883 237.13964844 146.73754883 237.26464844 144.17504883 C236.60464844 144.17504883 235.94464844 144.17504883 235.26464844 144.17504883 C235.173125 145.17020508 235.08160156 146.16536133 234.98730469 147.19067383 C234.36005326 151.53234459 232.7045947 155.05547585 230.70214844 158.92504883 C230.34644775 159.62170654 229.99074707 160.31836426 229.62426758 161.03613281 C221.21611342 177.09579976 209.96885902 188.65613328 192.94433594 195.35083008 C176.13222217 200.52190297 157.39765026 199.97869567 141.57714844 192.05004883 C135.3643377 188.4870393 130.2852059 184.255991 125.26464844 179.17504883 C124.55566406 178.48797852 123.84667969 177.8009082 123.11621094 177.09301758 C110.25531736 163.81328263 107.008767 146.86246299 105.26464844 129.17504883 C105.008125 130.20500977 104.75160156 131.2349707 104.48730469 132.29614258 C100.47265502 147.55036525 94.04110846 161.47433038 83.26464844 173.17504883 C82.45511719 174.07610352 81.64558594 174.9771582 80.81152344 175.90551758 C63.69113396 194.05212923 41.08986457 202.22332508 16.37011719 203.30126953 C-2.8324546 203.77620751 -18.7222194 202.20203594 -36.73535156 195.17504883 C-37.90710938 194.74836914 -39.07886719 194.32168945 -40.28613281 193.88208008 C-49.73555165 190.40409466 -56.11258056 187.42327375 -61.328125 178.42797852 C-62.88672595 174.82513343 -63.09540258 172.41025727 -63.06347656 168.50317383 C-63.05832031 167.19606445 -63.05316406 165.88895508 -63.04785156 164.54223633 C-63.02706752 163.16983975 -63.00623442 161.79744391 -62.98535156 160.42504883 C-62.98019531 159.1437207 -62.97503906 157.86239258 -62.96972656 156.54223633 C-62.92493969 149.16614032 -62.68634269 141.8061846 -62.35777664 134.43754482 C-61.77802612 121.11868833 -61.65365893 107.84386067 -61.78244781 94.51479912 C-61.82565224 89.77206737 -61.84818863 85.02929143 -61.87247849 80.28643131 C-61.91773432 71.52264914 -61.97198415 62.75909386 -62.05761719 53.99560547 C-62.11705972 47.83185522 -62.15197632 41.66838378 -62.17079926 35.50438118 C-62.18249177 33.17561591 -62.20322509 30.84687676 -62.23343658 28.51827812 C-62.27455373 25.27518402 -62.28433075 22.03336141 -62.28710938 18.79003906 C-62.3066568 17.84401321 -62.32620422 16.89798737 -62.34634399 15.92329407 C-62.29849681 8.06117581 -59.58280775 2.79546717 -54.77832031 -3.31323242 C-36.95999887 -20.83145582 -19.34938043 -9.02009187 0 0 Z M-14.73535156 47.17504883 C-14.73535156 82.15504883 -14.73535156 117.13504883 -14.73535156 153.17504883 C0.88464982 157.08004917 22.70224915 159.24725443 37.57714844 150.38208008 C38.13402344 149.98375977 38.69089844 149.58543945 39.26464844 149.17504883 C39.92464844 148.70454102 40.58464844 148.2340332 41.26464844 147.74926758 C49.47904421 141.23064669 54.68625561 132.26172157 57.26464844 122.17504883 C57.49152344 121.37067383 57.71839844 120.56629883 57.95214844 119.73754883 C59.61039234 106.13994885 55.90954654 94.2180782 47.82714844 83.30004883 C36.38705453 69.51272679 19.76493731 61.66897902 3.82714844 54.30004883 C2.79614014 53.82317627 1.76513184 53.34630371 0.70288086 52.85498047 C-0.28607178 52.40630615 -1.27502441 51.95763184 -2.29394531 51.49536133 C-3.1736499 51.09591309 -4.05335449 50.69646484 -4.9597168 50.28491211 C-8.13475862 49.01534221 -11.44746006 48.1144464 -14.73535156 47.17504883 Z M162.26464844 103.17504883 C155.97237425 112.98986026 152.98723081 123.5505484 154.26464844 135.17504883 C155.46673593 140.36588119 157.01909185 145.47347584 160.88964844 149.30004883 C166.09630519 152.19263591 170.9039267 153.03649965 176.73339844 151.54223633 C182.65038306 149.19516576 186.4236862 146.01349236 189.22949219 140.16333008 C193.3966291 128.85252989 192.46738179 114.31315697 188.26464844 103.17504883 C186.29101574 99.36681637 186.29101574 99.36681637 182.95214844 96.86254883 C174.74644908 94.76341643 168.39524196 97.63245248 162.26464844 103.17504883 Z " fill="#000000" transform="translate(224.7353515625,19.824951171875)"/>
<path d="M0 0 C4.90956843 3.43850289 7.90573863 7.93915292 10.125 13.48828125 C10.52522495 17.04273715 10.47469801 20.56371636 10.41796875 24.13671875 C10.41372391 25.14924713 10.40947906 26.16177551 10.40510559 27.20498657 C10.38837302 30.42469373 10.35073026 33.64376469 10.3125 36.86328125 C10.29744618 39.05207427 10.283759 41.24087714 10.27148438 43.4296875 C10.23848732 48.78276751 10.18834196 54.13547891 10.125 59.48828125 C12.50306701 56.95486114 14.88049264 54.42083997 17.2578125 51.88671875 C17.92401611 51.17700928 18.59021973 50.4672998 19.27661133 49.73608398 C26.47521409 42.06139482 33.59263511 34.31582521 40.625 26.48828125 C45.7516653 20.78383435 50.90647387 15.10882717 56.125 9.48828125 C57.22908203 8.28365234 57.22908203 8.28365234 58.35546875 7.0546875 C64.00849045 1.09550602 68.69650844 -1.60282261 77.0625 -1.94921875 C84.71253483 -1.72029003 89.38471798 0.66445788 94.9375 5.80078125 C99.21150423 10.40655749 101.23126784 14.96012995 101.6875 21.23828125 C101.10234826 36.18215635 85.33387298 50.4427199 75.625 60.8046875 C73.48870577 63.09786583 71.41797234 65.42491386 69.375 67.80078125 C66.69933429 70.89053808 63.87180062 73.76589555 60.9543457 76.6262207 C59.24448915 78.36665523 57.66607912 80.15840408 56.08984375 82.01953125 C51.38391373 87.4326604 46.27948339 92.44214042 41.1875 97.48828125 C40.2074469 98.46330511 39.2276276 99.43856405 38.24804688 100.4140625 C35.87597687 102.77444743 33.5015914 105.1324503 31.125 107.48828125 C33.89735829 110.90704432 36.54081482 114.04582028 39.9375 116.86328125 C42.79642735 119.29846514 45.49273461 121.80947286 48.125 124.48828125 C51.9608581 128.36865608 55.97603739 131.94801973 60.125 135.48828125 C61.10597656 136.34679687 62.08695312 137.2053125 63.09765625 138.08984375 C71.79473046 145.65337559 80.51588491 152.84066009 91.375 157.05078125 C98.32947616 159.7760609 103.13754811 163.3207798 107.125 169.67578125 C109.35349326 178.17191181 109.06082755 185.58010919 104.68359375 193.29296875 C101.12196986 198.30959187 96.98616089 201.57759444 91.125 203.48828125 C73.06655133 205.57288069 56.45685601 196.13214534 42.69873047 185.27758789 C38.46345016 181.84980983 34.38932048 178.25338275 30.3828125 174.5625 C28.35336537 172.69807712 26.28465844 170.90053571 24.1875 169.11328125 C20.76739333 166.14136183 17.56136214 162.97582443 14.37109375 159.76171875 C13.86477417 159.25342529 13.35845459 158.74513184 12.83679199 158.22143555 C11.59852204 156.97805179 10.36162072 155.73330528 9.125 154.48828125 C9.1156543 155.65810547 9.10630859 156.82792969 9.09667969 158.03320312 C9.05659938 162.40207025 8.99079141 166.77024648 8.91748047 171.13867188 C8.88937503 173.02399779 8.86810894 174.90943924 8.85400391 176.79492188 C8.83242911 179.51622225 8.78570651 182.23614856 8.734375 184.95703125 C8.73253204 186.20752258 8.73253204 186.20752258 8.73065186 187.48327637 C8.56256257 194.30471407 6.70140337 199.59989153 2.125 204.73046875 C1.465 205.26929688 0.805 205.808125 0.125 206.36328125 C-0.535 206.91757813 -1.195 207.471875 -1.875 208.04296875 C-7.87430147 212.37840145 -13.63009772 212.28863869 -20.875 211.48828125 C-28.69683015 209.09798118 -34.05166297 204.57119253 -37.99114704 197.47885895 C-40.64963176 191.88993747 -41.43475423 187.37746412 -41.30737305 181.22851562 C-41.30504229 180.33603622 -41.30271152 179.44355682 -41.30031013 178.52403259 C-41.28677918 175.54284682 -41.24340825 172.56290905 -41.19921875 169.58203125 C-41.18141681 167.42640223 -41.1649923 165.27076148 -41.14982605 163.1151123 C-41.10051594 157.17530173 -41.02080929 151.23627084 -40.93169403 145.29693604 C-40.87401034 141.42179667 -40.82159686 137.54661263 -40.77008057 133.67138672 C-40.56192319 118.4021504 -40.29252412 103.13492253 -39.96052742 87.86787415 C-39.78745921 79.89755228 -39.63113477 71.92728651 -39.49672204 63.95621538 C-39.39883321 58.22989625 -39.28254345 52.5041287 -39.15254134 46.77844954 C-39.07631557 43.40135294 -39.01018445 40.02486034 -38.95923805 36.64723206 C-38.90133792 32.9247466 -38.8133298 29.20411148 -38.71801758 25.48242188 C-38.70794174 24.39486603 -38.69786591 23.30731018 -38.68748474 22.1867981 C-38.44676746 14.55230888 -36.6780107 8.6805259 -31.46862507 2.93796539 C-22.33258454 -5.30264569 -10.55018178 -6.00210662 0 0 Z " fill="#000000" transform="translate(46.875,13.51171875)"/>
<path d="M0 0 C5.91412276 3.57391074 10.37268406 8.97791174 12.5625 15.5 C14.10613188 28.11491299 13.71807047 41.04281334 13.69287109 53.72875977 C13.68751381 56.92924751 13.69284865 60.12959462 13.69921875 63.33007812 C13.70271594 75.42160682 13.40367984 87.43702121 12.5625 99.5 C17.22622094 95.4832783 21.83034051 91.40104431 26.375 87.25 C27.1803418 86.51463013 27.1803418 86.51463013 28.00195312 85.7644043 C31.53071833 82.49789868 34.92575327 79.12787012 38.2734375 75.67578125 C39.09610107 74.83241211 39.91876465 73.98904297 40.76635742 73.12011719 C42.38479372 71.45347621 43.9923513 69.77617992 45.5871582 68.08691406 C51.48000022 62.02827917 57.42806257 57.47252285 65.8828125 55.87109375 C74.5872314 56.07718723 79.97413453 57.89169944 86.375 63.8125 C90.90101749 68.70018556 92.70677324 73.29408131 93 79.9375 C92.53804791 91.67745489 84.34659025 98.56066581 76.5625 106.5 C75.4799292 107.60529053 75.4799292 107.60529053 74.37548828 108.73291016 C72.06960871 111.07877326 69.75608466 113.41669572 67.4375 115.75 C66.69089111 116.50144287 65.94428223 117.25288574 65.17504883 118.02709961 C64.47532959 118.72456299 63.77561035 119.42202637 63.0546875 120.140625 C62.42933105 120.76485352 61.80397461 121.38908203 61.15966797 122.03222656 C59.5625 123.5 59.5625 123.5 57.5625 124.5 C59.05103362 129.10326872 61.69827576 132.40369373 64.75 136.0625 C98.30833477 177.30018231 98.30833477 177.30018231 97.93359375 193.72265625 C96.9664785 200.96075036 91.91897901 205.46514925 86.625 210.0546875 C80.42989119 214.39595693 73.86986743 214.19087838 66.5625 213.5 C58.50283035 211.40898554 53.70659254 205.06502961 49.58203125 198.20703125 C48.86546026 196.972355 48.15068561 195.73663484 47.4375 194.5 C42.81207288 186.47977323 37.15409709 179.56582121 31.21435547 172.49169922 C28.49450274 169.21227879 25.87172003 165.85802739 23.25 162.5 C22.77578613 161.89406006 22.30157227 161.28812012 21.81298828 160.66381836 C20.72824522 159.27685326 19.64516474 157.88858805 18.5625 156.5 C14.81238787 158.1611473 14.81238787 158.1611473 11.5625 160.5 C10.49727939 164.60496094 10.4408207 168.6344843 10.421875 172.859375 C10.40253906 174.05820313 10.38320313 175.25703125 10.36328125 176.4921875 C10.3296404 178.98161028 10.31121443 181.47128881 10.30859375 183.9609375 C10.13168835 192.6572343 8.86648752 199.90398101 2.74902344 206.43652344 C-3.57651816 212.30056056 -9.53188264 212.95881191 -17.98828125 212.80859375 C-25.21908359 212.16167032 -29.45956499 209.05898494 -34.11328125 203.671875 C-38.41240739 196.62080086 -38.88892263 190.38153587 -38.75 182.3125 C-38.740896 181.21067383 -38.73179199 180.10884766 -38.72241211 178.97363281 C-38.60921915 171.20214339 -38.11668909 163.49513934 -37.5 155.75 C-36.46830201 142.38178933 -36.06818033 129.02858763 -35.8125 115.625 C-35.79112976 114.53583282 -35.76975952 113.44666565 -35.7477417 112.32449341 C-35.48453898 98.21854476 -35.41885863 84.12057213 -35.50502014 70.01314545 C-35.51948588 67.57405656 -35.53163657 65.13496657 -35.54309082 62.69586182 C-35.55096115 61.07507293 -35.55889562 59.45428435 -35.56689453 57.83349609 C-35.57082088 57.03334328 -35.57474724 56.23319046 -35.57879257 55.40879059 C-35.60461854 50.63037619 -35.65071388 45.85265135 -35.71138096 41.07455921 C-35.74561198 38.07512671 -35.76343503 35.07574302 -35.77744102 32.07615471 C-35.78764963 30.67781373 -35.80497059 29.27950331 -35.83002663 27.88134956 C-35.98959234 18.78930653 -35.66899255 12.32878077 -29.47265625 5.2578125 C-28.82167969 4.71898437 -28.17070313 4.18015625 -27.5 3.625 C-26.85160156 3.07070312 -26.20320312 2.51640625 -25.53515625 1.9453125 C-18.47077988 -2.92213491 -7.84396301 -3.47595223 0 0 Z " fill="#000000" transform="translate(635.4375,2.5)"/>
<path d="M0 0 C3.3855302 1.0863136 6.5800317 2.52587039 9.8125 4 C10.73538818 4.40790771 11.65827637 4.81581543 12.60913086 5.23608398 C15.41203616 6.47788965 18.2067673 7.73661019 21 9 C24.01944446 10.35728069 27.04078011 11.71029474 30.0625 13.0625 C30.78590576 13.38871338 31.50931152 13.71492676 32.25463867 14.05102539 C36.97336294 16.1604562 41.73903755 18.08823778 46.56176758 19.9465332 C76.71847346 31.60536444 104.37865711 51.11103906 118.30859375 81.05859375 C126.70289183 100.04447988 126.82018755 118.26818293 119.6875 137.6875 C111.4354944 157.92456135 98.01551646 173.79434976 77.60546875 182.4375 C52.26396757 191.66257518 24.83795357 191.52573417 0 181 C-1.485 180.01 -1.485 180.01 -3 179 C-4.9118032 178.40861188 -4.9118032 178.40861188 -6.9375 178 C-14.19849716 176.24459409 -14.19849716 176.24459409 -16.58984375 172.53125 C-18.42695862 167.93082938 -18.33538748 164.14362068 -18.25 159.25 C-18.23547413 158.33678671 -18.22094826 157.42357342 -18.20598221 156.482687 C-18.09372378 150.31885943 -17.89462003 144.16599607 -17.61830521 138.00748253 C-17.03315885 124.76384471 -16.91922107 111.56323627 -17.04709625 98.30918503 C-17.09028828 93.56142379 -17.11283324 88.81361849 -17.13712692 84.06572914 C-17.18239522 75.29201869 -17.23668773 66.51853475 -17.32226562 57.74511719 C-17.38166584 51.57488769 -17.4166129 45.40493627 -17.43544769 39.23445511 C-17.44714914 36.90207238 -17.46789692 34.56971595 -17.49808502 32.23749924 C-17.53914298 28.99180633 -17.54897657 25.74738485 -17.55175781 22.50146484 C-17.57130524 21.55184372 -17.59085266 20.6022226 -17.61099243 19.62382507 C-17.56333976 11.80573731 -14.94725964 7.10237857 -9.625 1.5 C-6.07384821 -0.5292296 -4.08899405 -0.3559164 0 0 Z M17 46 C17 80.98 17 115.96 17 152 C32.62000138 155.90500034 54.43760071 158.0722056 69.3125 149.20703125 C69.869375 148.80871094 70.42625 148.41039062 71 148 C71.66 147.52949219 72.32 147.05898437 73 146.57421875 C81.21439577 140.05559786 86.42160717 131.08667274 89 121 C89.226875 120.195625 89.45375 119.39125 89.6875 118.5625 C91.3457439 104.96490002 87.6448981 93.04302937 79.5625 82.125 C68.1224061 68.33767796 51.50028887 60.49393019 35.5625 53.125 C34.5314917 52.64812744 33.5004834 52.17125488 32.43823242 51.67993164 C31.44927979 51.23125732 30.46032715 50.78258301 29.44140625 50.3203125 C28.56170166 49.92086426 27.68199707 49.52141602 26.77563477 49.10986328 C23.60059294 47.84029339 20.2878915 46.93939757 17 46 Z " fill="#E70000" transform="translate(193,21)"/>
<path d="M0 0 C3.02685758 2.02377106 3.78146488 3.93057541 5.015625 7.34765625 C5.389747 10.50514245 5.34394248 13.61003497 5.265625 16.78515625 C5.25466797 17.69966553 5.24371094 18.6141748 5.23242188 19.55639648 C5.11144932 27.30455726 4.74780739 35.04218972 4.37866211 42.78173828 C4.07180465 49.40827704 3.87636526 56.02651739 3.828125 62.66015625 C3.80878906 63.93258179 3.80878906 63.93258179 3.7890625 65.23071289 C3.78567844 67.27108931 3.8908513 69.31109569 4.015625 71.34765625 C5.92895309 73.63078448 5.92895309 73.63078448 9.140625 73.97265625 C14.90375587 73.04311901 17.30856908 69.64196856 21.015625 65.34765625 C21.61503906 64.66574219 22.21445312 63.98382813 22.83203125 63.28125 C23.99400837 61.95290479 25.15030039 60.61956447 26.30078125 59.28125 C28.48688814 56.81627753 30.82133255 54.52885078 33.17211914 52.22241211 C34.9502455 50.41414402 36.61259186 48.55154122 38.265625 46.62890625 C42.51474406 41.74129522 46.95705533 37.04866176 51.41015625 32.34765625 C55.14016186 28.39369585 58.77261012 24.37534811 62.33691406 20.27148438 C64.89481195 17.34009471 67.50965135 14.46341495 70.140625 11.59765625 C70.88892578 10.77201172 70.88892578 10.77201172 71.65234375 9.9296875 C78.72571797 2.22838972 78.72571797 2.22838972 83.453125 0.41015625 C87.8242342 0.30354383 90.77769183 2.22952306 93.953125 5.09765625 C95.54171424 8.46172759 94.78647883 10.75284523 94.015625 14.34765625 C86.10846489 29.08721685 72.94515428 41.52919396 61.59765625 53.65234375 C59.95872667 55.40862878 58.33045639 57.17437356 56.703125 58.94140625 C55.51642917 60.22340111 54.32890566 61.50463023 53.140625 62.78515625 C52.53935791 63.43468262 51.93809082 64.08420898 51.31860352 64.75341797 C47.38025982 68.96011474 43.32039508 73.01712471 39.16796875 77.01171875 C38.15126452 77.99785467 37.13482599 78.98426461 36.11865234 79.97094727 C34.60948771 81.43605907 33.09577224 82.89362177 31.56085205 84.33175659 C30.12565139 85.67650838 28.71274968 87.04493743 27.30078125 88.4140625 C26.47457275 89.19724854 25.64836426 89.98043457 24.79711914 90.78735352 C22.42836845 94.19164138 22.48926175 96.28310776 23.015625 100.34765625 C24.08549191 102.37570016 24.08549191 102.37570016 25.796875 103.84765625 C26.68318604 104.70786377 26.68318604 104.70786377 27.58740234 105.58544922 C28.54187256 106.4577417 28.54187256 106.4577417 29.515625 107.34765625 C30.15838379 107.96141113 30.80114258 108.57516602 31.46337891 109.20751953 C35.28961399 112.83679475 39.20182694 116.36916342 43.2265625 119.77734375 C45.2487878 121.55231006 47.12777127 123.43064648 49.015625 125.34765625 C52.85172112 129.22827186 56.86898093 132.80441555 61.015625 136.34765625 C61.97339844 137.19457031 62.93117188 138.04148438 63.91796875 138.9140625 C73.29281425 147.13550389 82.94593967 154.57309194 94.703125 159.03515625 C98.32009364 160.46163452 99.82753882 161.13545645 102.453125 164.09765625 C103.26451853 168.78570776 102.35095734 172.22458675 100.015625 176.34765625 C97.27840547 178.68430707 95.56435411 179.34765625 91.96484375 179.34765625 C73.15010173 176.81794304 56.2824554 161.8065707 43.015625 149.34765625 C41.72933723 148.23722814 40.43804478 147.13255715 39.140625 146.03515625 C34.81446561 142.28759843 30.84137326 138.1998563 26.81982422 134.13256836 C22.71596477 129.99919774 18.47055391 126.10180982 14.015625 122.34765625 C13.685625 122.01765625 13.355625 121.68765625 13.015625 121.34765625 C9.55741098 121.09761661 9.55741098 121.09761661 6.015625 121.34765625 C3.43661783 123.92666342 3.76044383 124.94266553 3.74438477 128.52832031 C3.73419815 129.60994446 3.72401154 130.6915686 3.71351624 131.80596924 C3.71137619 132.9798822 3.70923615 134.15379517 3.70703125 135.36328125 C3.68186527 137.8359398 3.65646733 140.30859599 3.63085938 142.78125 C3.60213227 146.68960939 3.57812369 150.59792778 3.55932617 154.50634766 C3.53766069 158.27137962 3.49821031 162.03591954 3.45703125 165.80078125 C3.45691544 166.96659729 3.45679962 168.13241333 3.4566803 169.33355713 C3.33208645 179.55448563 3.33208645 179.55448563 0.015625 184.34765625 C-2.90286498 186.79287758 -4.22727822 187.39400911 -8.046875 187.16015625 C-11.5926113 186.17942068 -14.09989191 185.44262522 -16.45487976 182.52720642 C-20.75266142 174.63335054 -20.5938825 167.08021088 -20.37890625 158.3515625 C-20.35632577 156.67349243 -20.33580558 154.99539366 -20.3170929 153.317276 C-20.25456492 148.44177984 -20.15572159 143.5675017 -20.05219269 138.69272614 C-19.95435587 133.86697939 -19.87694765 129.04094368 -19.7974987 124.21486473 C-19.56606184 110.27280515 -19.28363727 96.33228432 -18.96626091 82.39192772 C-18.93330548 80.94382123 -18.90036242 79.49571447 -18.86743164 78.04760742 C-18.85107261 77.32865 -18.83471358 76.60969259 -18.81785882 75.86894858 C-18.68433185 69.95033763 -18.56511862 64.03149246 -18.44839925 58.1125297 C-18.33358818 52.3288681 -18.2078282 46.54550891 -18.07373935 40.7622624 C-17.99463291 37.33996026 -17.92005844 33.91771106 -17.85715294 30.4950695 C-17.78497644 26.71623875 -17.69490059 22.93823976 -17.6003418 19.15991211 C-17.58307541 18.04585999 -17.56580902 16.93180786 -17.54801941 15.78399658 C-17.39152459 10.30096246 -17.21297478 6.00624673 -13.984375 1.34765625 C-8.83138384 -2.05331792 -5.58100207 -1.78553038 0 0 Z " fill="#004AAF" transform="translate(38.984375,24.65234375)"/>
<path d="M0 0 C11.80957456 9.3990439 16.9997865 23.83881506 19.96484375 38.125 C21.79750488 59.75040131 17.45976808 80.02682206 3.7265625 97.1875 C-6.0169713 107.63033049 -19.2134353 113.5960289 -33.47265625 114.125 C-47.96339891 113.74307345 -60.02209043 108.19756744 -70.4375 98.27734375 C-81.82790345 85.99128465 -86.1075413 69.81886226 -85.9375 53.34375 C-85.0197788 38.25975064 -79.34217113 25.04289274 -70.72265625 12.8125 C-70.2740625 12.16539063 -69.82546875 11.51828125 -69.36328125 10.8515625 C-53.47520972 -9.80293049 -21.21457466 -13.75337093 0 0 Z M-42.72265625 31.8125 C-49.01493044 41.62731143 -52.00007388 52.18799957 -50.72265625 63.8125 C-49.52056876 69.00333236 -47.96821283 74.11092701 -44.09765625 77.9375 C-38.8909995 80.83008708 -34.08337799 81.67395083 -28.25390625 80.1796875 C-22.33692163 77.83261693 -18.56361849 74.65094353 -15.7578125 68.80078125 C-11.59067559 57.48998106 -12.5199229 42.95060815 -16.72265625 31.8125 C-18.69628895 28.00426754 -18.69628895 28.00426754 -22.03515625 25.5 C-30.24085561 23.4008676 -36.59206273 26.26990366 -42.72265625 31.8125 Z " fill="#149717" transform="translate(429.72265625,91.1875)"/>
<path d="M0 0 C3.11905047 2.57660691 4.7181368 4.1544104 6 8 C6.23653725 10.4991849 6.42304391 12.97586039 6.56079102 15.48071289 C6.60311387 16.23193704 6.64543673 16.98316118 6.68904209 17.7571497 C7.09862025 25.75140307 7.10000606 33.73465817 7.04459953 41.73715019 C7.02685615 44.38125535 7.01680507 47.02529751 7.00868225 49.66944885 C6.98450295 57.17170111 6.94823187 64.6738653 6.90405273 72.17602539 C6.87734974 76.79916403 6.86026572 81.42225667 6.84918404 86.04545784 C6.84297417 87.79941609 6.83296875 89.55336514 6.81910515 91.30727959 C6.79999236 93.74064031 6.79300971 96.17375235 6.78881836 98.60717773 C6.78005676 99.33068924 6.77129517 100.05420074 6.76226807 100.79963684 C6.65092782 104.84898054 6.65092782 104.84898054 9 108 C11.9814283 108.68324399 13.1445685 108.86241393 16 108 C19.64545148 105.32074135 22.78026207 102.16863098 26 99 C27.26103809 97.88465954 28.531237 96.77954694 29.8125 95.6875 C37.3705705 89.07418832 44.75965117 82.32357594 51.78125 75.140625 C52.61293701 74.29274414 53.44462402 73.44486328 54.30151367 72.57128906 C55.94379289 70.8895696 57.57718691 69.19911536 59.20043945 67.49902344 C63.8212589 62.76875201 67.79307248 59.39135628 74 57 C78.25190011 57.49605501 80.26159144 58.33732565 83.4375 61.1875 C85.4275148 64.76952663 85.34964942 66.9396961 85 71 C78.01827774 83.69042393 63.64826629 95.13680696 52.74633789 104.46582031 C48.95454695 107.6042651 48.95454695 107.6042651 47.4296875 112.16796875 C48.2209841 117.48483155 50.72927184 120.2703701 54.125 124.3125 C55.4143328 125.90863586 56.70338743 127.50499646 57.9921875 129.1015625 C58.65702148 129.91270508 59.32185547 130.72384766 60.00683594 131.55957031 C67.56098809 140.80887273 74.97307516 150.2012446 81.625 160.125 C82.01461914 160.70403076 82.40423828 161.28306152 82.80566406 161.87963867 C91.24846123 174.75769383 91.24846123 174.75769383 90 181 C87.46542402 184.09781508 84.88981501 186.82126818 81 188 C77.15888849 187.91827422 75.4709138 187.41139029 72.55859375 184.8671875 C69.86354325 181.84708511 67.94016178 178.70554885 66 175.1875 C61.8022278 167.89805238 56.80471486 161.58136855 51.421875 155.140625 C47.24777318 150.14034883 43.3261352 144.95496215 39.40136719 139.75830078 C38.40618921 138.44381265 37.40420592 137.13444078 36.39453125 135.83105469 C35.48489831 134.6366837 34.60521486 133.41871935 33.76171875 132.17675781 C31.59980063 129.16802974 30.36934385 128.07973972 26.70703125 127.2890625 C21.77767765 128.23441798 18.67029584 130.42204664 14.6875 133.375 C13.97271484 133.88289062 13.25792969 134.39078125 12.52148438 134.9140625 C6.98057108 138.51190552 6.98057108 138.51190552 4.3984375 144.24609375 C3.62486538 151.73015062 3.67964639 159.30556073 3.5703125 166.82226562 C3.27082884 178.48341069 3.27082884 178.48341069 0 184 C-3.45260135 186.5109828 -5.35380015 187.01114138 -9.625 186.9375 C-13.38339533 185.8935013 -14.71952152 185.12510013 -17 182 C-20.70527834 172.5973582 -19.11939225 162.15582337 -18.33056641 152.2878418 C-17.1747631 137.57292879 -16.65616337 122.88147989 -16.375 108.125 C-16.3539621 107.03740387 -16.33292419 105.94980774 -16.31124878 104.82925415 C-16.05249644 90.70214693 -15.97885082 76.58066795 -16.03689194 62.45188904 C-16.04683881 60.00499741 -16.05521962 57.55810461 -16.06326294 55.11120605 C-16.08845895 47.87731994 -16.12093269 40.64389658 -16.19174957 33.41029644 C-16.21845939 30.40235511 -16.23311579 27.39443273 -16.24506378 24.38640022 C-16.25346658 22.98085291 -16.26725005 21.57532596 -16.28679657 20.16988945 C-16.31327945 18.23262143 -16.319439 16.29510788 -16.32470703 14.35766602 C-16.33438507 13.26954117 -16.34406311 12.18141632 -16.35403442 11.06031799 C-15.93745849 7.45938336 -14.87311551 5.08908829 -13 2 C-8.47609191 -1.18729888 -5.29441691 -1.54019401 0 0 Z " fill="#7041F7" transform="translate(629,15)"/>
<path d="M0 0 C4.99258776 0.91168028 9.57858492 3.17456276 14.1953125 5.21337891 C15.33581055 5.70894287 16.47630859 6.20450684 17.65136719 6.71508789 C21.17476097 8.25809642 24.68636949 9.82531407 28.1953125 11.40087891 C29.26201172 11.87589844 30.32871094 12.35091797 31.42773438 12.84033203 C43.57144927 18.28776502 54.86579269 23.95189586 65.1953125 32.40087891 C66.17628906 33.20138672 67.15726562 34.00189453 68.16796875 34.82666016 C79.70917455 44.78035485 88.97724365 56.94093902 91.1953125 72.40087891 C91.81154069 82.85108203 92.22286098 93.57796486 88.1953125 103.40087891 C87.81632812 104.35865234 87.43734375 105.31642578 87.046875 106.30322266 C81.52629018 118.70060533 71.39562754 129.62235294 59.02734375 135.41650391 C48.44300772 139.34948123 36.79318638 139.74535705 25.6328125 139.71337891 C23.93995117 139.73754883 23.93995117 139.73754883 22.21289062 139.76220703 C12.28267053 139.76791734 2.12449021 138.86941861 -5.8046875 132.40087891 C-8.36235794 129.84320846 -8.05755295 128.90981918 -8.06538391 125.35914612 C-8.07246872 124.2921347 -8.07955353 123.22512329 -8.08685303 122.1257782 C-8.08437561 120.95013809 -8.08189819 119.77449799 -8.0793457 118.56323242 C-8.08445663 117.32905579 -8.08956757 116.09487915 -8.09483337 114.82330322 C-8.10637628 111.43275207 -8.10879904 108.04244487 -8.10627007 104.65189099 C-8.10520215 101.82376069 -8.11007917 98.99565307 -8.1148755 96.16752762 C-8.12598025 89.49651491 -8.12640275 82.8255585 -8.12036133 76.15454102 C-8.11432034 69.26759588 -8.12663336 62.38085499 -8.1479314 55.4939447 C-8.16553275 49.58561287 -8.17155107 43.67734612 -8.16829365 37.76898903 C-8.1664782 34.23820982 -8.16914275 30.70757628 -8.18300819 27.17682076 C-8.19788735 23.24043856 -8.18862922 19.30431752 -8.17700195 15.36791992 C-8.18464569 14.19430405 -8.19228943 13.02068817 -8.20016479 11.81150818 C-8.18964333 10.20676132 -8.18964333 10.20676132 -8.1789093 8.56959534 C-8.17907704 7.63841668 -8.17924479 6.70723803 -8.17941761 5.74784184 C-7.42533969 1.02499498 -4.58935579 -0.21482602 0 0 Z M5.1953125 17.40087891 C5.1953125 52.38087891 5.1953125 87.36087891 5.1953125 123.40087891 C20.81531388 127.30587925 42.63291321 129.47308451 57.5078125 120.60791016 C58.0646875 120.20958984 58.6215625 119.81126953 59.1953125 119.40087891 C59.8553125 118.93037109 60.5153125 118.45986328 61.1953125 117.97509766 C69.40970827 111.45647677 74.61691967 102.48755165 77.1953125 92.40087891 C77.4221875 91.59650391 77.6490625 90.79212891 77.8828125 89.96337891 C79.5410564 76.36577893 75.8402106 64.44390828 67.7578125 53.52587891 C56.3177186 39.73855686 39.69560137 31.8948091 23.7578125 24.52587891 C22.7268042 24.04900635 21.6957959 23.57213379 20.63354492 23.08081055 C19.64459229 22.63213623 18.65563965 22.18346191 17.63671875 21.72119141 C16.75701416 21.32174316 15.87730957 20.92229492 14.97094727 20.51074219 C11.79590544 19.24117229 8.483204 18.34027648 5.1953125 17.40087891 Z " fill="#000000" transform="translate(204.8046875,49.59912109375)"/>
<path d="M0 0 C0.65033203 0.27593994 1.30066406 0.55187988 1.97070312 0.83618164 C6.6999932 2.96694045 11.97083737 5.75417473 14.375 10.5625 C14.75 13.375 14.75 13.375 14.375 16.5625 C12.2986068 19.1579915 10.60345603 21.02260531 7.53515625 22.37109375 C4.39056 22.64972886 2.74894936 21.40841051 0.0625 19.8125 C-8.72128985 14.77147014 -15.77406814 12.38408127 -26 12.25 C-26.72960937 12.22099609 -27.45921875 12.19199219 -28.2109375 12.16210938 C-34.95728283 12.08380358 -38.88740684 14.15413963 -43.99609375 18.6484375 C-57.47982165 33.58504346 -65.38081445 51.0780967 -64.94140625 71.26171875 C-64.67854506 76.35946616 -63.50025364 80.32078918 -60.625 84.5625 C-59.92375 85.614375 -59.2225 86.66625 -58.5 87.75 C-52.01311307 94.9155151 -42.80483681 98.38496852 -33.328125 98.8984375 C-19.71375575 99.1738421 -9.79736955 95.89287255 2.3671875 89.734375 C5.65537692 88.45326224 7.87844537 88.18159042 11.375 88.5625 C14.65239829 90.98492482 16.11205139 92.53261794 17.125 96.5 C15.98989616 101.13500736 13.21517629 103.08058542 9.375 105.5625 C-8.22126876 115.68823011 -26.39665916 121.53305517 -46.58398438 116.19628906 C-60.19646721 111.96925492 -72.4238318 103.82885973 -79.37890625 91.1796875 C-87.02231416 75.12613484 -86.84398602 61.21216064 -81.62890625 44.33984375 C-76.94328879 31.25578393 -69.90470511 18.91811295 -60.625 8.5625 C-60.07457031 7.91925781 -59.52414062 7.27601562 -58.95703125 6.61328125 C-42.4361759 -11.47725157 -20.41771335 -8.76920733 0 0 Z " fill="#F8C700" transform="translate(559.625,87.4375)"/>
<path d="M0 0 C7.76895716 6.38570381 11.17473137 14.4799189 12.6015625 24.31640625 C12.86224372 28.68937859 12.87827841 33.06143417 12.9140625 37.44140625 C12.94306641 38.6015625 12.97207031 39.76171875 13.00195312 40.95703125 C13.0953878 53.80789205 10.13150556 62.8787689 1.20703125 72.02734375 C-5.1829277 77.64131068 -11.7633847 79.50520149 -20.1484375 79.56640625 C-20.839375 79.58703125 -21.5303125 79.60765625 -22.2421875 79.62890625 C-30.18901283 79.68865682 -35.78894959 76.56666159 -41.5390625 71.2734375 C-49.02272906 63.39672123 -50.77764822 54.72447515 -50.7109375 44.12890625 C-50.70529785 43.1970752 -50.6996582 42.26524414 -50.69384766 41.30517578 C-50.45613662 27.78388939 -46.98616786 15.86563033 -37.4609375 5.87890625 C-28.16638463 -2.79364022 -11.57364976 -7.31638211 0 0 Z M-29.3984375 17.31640625 C-35.69071169 27.13121768 -38.67585513 37.69190582 -37.3984375 49.31640625 C-36.19635001 54.50723861 -34.64399408 59.61483326 -30.7734375 63.44140625 C-25.56678075 66.33399333 -20.75915924 67.17785708 -14.9296875 65.68359375 C-9.01270288 63.33652318 -5.23939974 60.15484978 -2.43359375 54.3046875 C1.73354316 42.99388731 0.80429585 28.4545144 -3.3984375 17.31640625 C-5.3720702 13.50817379 -5.3720702 13.50817379 -8.7109375 11.00390625 C-16.91663686 8.90477385 -23.26784398 11.77380991 -29.3984375 17.31640625 Z " fill="#000000" transform="translate(416.3984375,105.68359375)"/>
</svg>
